{
  "accessors": [
    {
      "bufferView": 2,
      "componentType": 5126,
      "count": 65532,
      "max": [
        35.9589729309082,
        45.379215240478516,
        22.48609161376953
      ],
      "min": [
        -33.66157150268555,
        -17.616315841674805,
        -6.029451370239258
      ],
      "type": "VEC3"
    },
    {
      "bufferView": 2,
      "byteOffset": 786384,
      "componentType": 5126,
      "count": 65532,
      "max": [
        0.99934983253479,
        0.999954879283905,
        0.9999909996986389
      ],
      "min": [
        -0.9999902844429016,
        -0.9999971985816956,
        -0.987047016620636
      ],
      "type": "VEC3"
    },
    {
      "bufferView": 1,
      "componentType": 5126,
      "count": 65532,
      "max": [
        0.9995726943016052,
        0.9381712675094604
      ],
      "min": [
        0.00018310546875,
        0.00042714609298855066
      ],
      "type": "VEC2"
    },
    {
      "bufferView": 0,
      "componentType": 5125,
      "count": 194181,
      "type": "SCALAR"
    },
    {
      "bufferView": 2,
      "byteOffset": 1572768,
      "componentType": 5126,
      "count": 65532,
      "max": [
        35.9589729309082,
        45.379215240478516,
        21.084779739379883
      ],
      "min": [
        -28.2586612701416,
        -51.28388595581055,
        -6.029451370239258
      ],
      "type": "VEC3"
    },
    {
      "bufferView": 2,
      "byteOffset": 2359152,
      "componentType": 5126,
      "count": 65532,
      "max": [
        0.9999176263809204,
        0.9999175071716309,
        0.9999992251396179
      ],
      "min": [
        -0.9999885559082031,
        -0.9999971985816956,
        -0.9963714480400085
      ],
      "type": "VEC3"
    },
    {
      "bufferView": 1,
      "byteOffset": 524256,
      "componentType": 5126,
      "count": 65532,
      "max": [
        0.9995726943016052,
        0.9406126737594604
      ],
      "min": [
        0.00018310546875,
        0.00042714609298855066
      ],
      "type": "VEC2"
    },
    {
      "bufferView": 0,
      "byteOffset": 776724,
      "componentType": 5125,
      "count": 186597,
      "type": "SCALAR"
    },
    {
      "bufferView": 2,
      "byteOffset": 3145536,
      "componentType": 5126,
      "count": 65534,
      "max": [
        35.9589729309082,
        45.379215240478516,
        21.084779739379883
      ],
      "min": [
        -44.22135925292969,
        -51.283992767333984,
        -6.029451370239258
      ],
      "type": "VEC3"
    },
    {
      "bufferView": 2,
      "byteOffset": 3931944,
      "componentType": 5126,
      "count": 65534,
      "max": [
        0.999954342842102,
        0.9995538592338562,
        0.9999958872795105
      ],
      "min": [
        -0.9998115301132202,
        -0.9998306035995483,
        -0.9973503351211548
      ],
      "type": "VEC3"
    },
    {
      "bufferView": 1,
      "byteOffset": 1048512,
      "componentType": 5126,
      "count": 65534,
      "max": [
        0.9995726943016052,
        0.9424437284469604
      ],
      "min": [
        0.00018310546875,
        0.00042714609298855066
      ],
      "type": "VEC2"
    },
    {
      "bufferView": 0,
      "byteOffset": 1523112,
      "componentType": 5125,
      "count": 188913,
      "type": "SCALAR"
    },
    {
      "bufferView": 2,
      "byteOffset": 4718352,
      "componentType": 5126,
      "count": 65532,
      "max": [
        35.9589729309082,
        45.379215240478516,
        23.842105865478516
      ],
      "min": [
        -44.22135925292969,
        -51.283992767333984,
        -6.029451370239258
      ],
      "type": "VEC3"
    },
    {
      "bufferView": 2,
      "byteOffset": 5504736,
      "componentType": 5126,
      "count": 65532,
      "max": [
        0.9999992847442627,
        0.9999414086341858,
        0.9999862909317017
      ],
      "min": [
        -0.9996891021728516,
        -0.9997280240058899,
        -0.9961676597595215
      ],
      "type": "VEC3"
    },
    {
      "bufferView": 1,
      "byteOffset": 1572784,
      "componentType": 5126,
      "count": 65532,
      "max": [
        0.9995726943016052,
        0.9461058378219604
      ],
      "min": [
        0.00018310546875,
        0.00042714609298855066
      ],
      "type": "VEC2"
    },
    {
      "bufferView": 0,
      "byteOffset": 2278764,
      "componentType": 5125,
      "count": 187350,
      "type": "SCALAR"
    },
    {
      "bufferView": 2,
      "byteOffset": 6291120,
      "componentType": 5126,
      "count": 65532,
      "max": [
        6.986298084259033,
        13.507895469665527,
        25.35289192199707
      ],
      "min": [
        -9.163813591003418,
        -5.6649885177612305,
        16.60462760925293
      ],
      "type": "VEC3"
    },
    {
      "bufferView": 2,
      "byteOffset": 7077504,
      "componentType": 5126,
      "count": 65532,
      "max": [
        0.9999998211860657,
        0.9999682903289795,
        0.9999982118606567
      ],
      "min": [
        -0.9998440146446228,
        -0.9999469518661499,
        -0.9990308284759521
      ],
      "type": "VEC3"
    },
    {
      "bufferView": 1,
      "byteOffset": 2097040,
      "componentType": 5126,
      "count": 65532,
      "max": [
        0.99957275390625,
        0.9393919706344604
      ],
      "min": [
        0.00018310546875,
        0.00042714609298855066
      ],
      "type": "VEC2"
    },
    {
      "bufferView": 0,
      "byteOffset": 3028164,
      "componentType": 5125,
      "count": 276024,
      "type": "SCALAR"
    },
    {
      "bufferView": 2,
      "byteOffset": 7863888,
      "componentType": 5126,
      "count": 65532,
      "max": [
        1.936314344406128,
        12.7832612991333,
        26.748374938964844
      ],
      "min": [
        -8.474543571472168,
        1.1437218189239502,
        18.370176315307617
      ],
      "type": "VEC3"
    },
    {
      "bufferView": 2,
      "byteOffset": 8650272,
      "componentType": 5126,
      "count": 65532,
      "max": [
        0.9999927878379822,
        0.9999697804450989,
        0.9999939203262329
      ],
      "min": [
        -0.9999988079071045,
        -0.9999868273735046,
        -0.9997072219848633
      ],
      "type": "VEC3"
    },
    {
      "bufferView": 1,
      "byteOffset": 2621296,
      "componentType": 5126,
      "count": 65532,
      "max": [
        0.99957275390625,
        0.9381712675094604
      ],
      "min": [
        0.00018310546875,
        0.00042714609298855066
      ],
      "type": "VEC2"
    },
    {
      "bufferView": 0,
      "byteOffset": 4132260,
      "componentType": 5125,
      "count": 274956,
      "type": "SCALAR"
    },
    {
      "bufferView": 2,
      "byteOffset": 9436656,
      "componentType": 5126,
      "count": 65532,
      "max": [
        3.8457322120666504,
        10.83326530456543,
        26.746503829956055
      ],
      "min": [
        -10.273372650146484,
        -6.344812870025635,
        17.78836441040039
      ],
      "type": "VEC3"
    },
    {
      "bufferView": 2,
      "byteOffset": 10223040,
      "componentType": 5126,
      "count": 65532,
      "max": [
        0.9995810985565186,
        0.9999909996986389,
        0.9999990463256836
      ],
      "min": [
        -0.9999388456344604,
        -0.9997901916503906,
        -0.9983753561973572
      ],
      "type": "VEC3"
    },
    {
      "bufferView": 1,
      "byteOffset": 3145552,
      "componentType": 5126,
      "count": 65532,
      "max": [
        0.99957275390625,
        0.9406126737594604
      ],
      "min": [
        0.00018310546875,
        0.00042714609298855066
      ],
      "type": "VEC2"
    },
    {
      "bufferView": 0,
      "byteOffset": 5232084,
      "componentType": 5125,
      "count": 278793,
      "type": "SCALAR"
    },
    {
      "bufferView": 2,
      "byteOffset": 11009424,
      "componentType": 5126,
      "count": 65532,
      "max": [
        7.9023756980896,
        12.982048988342285,
        26.84752082824707
      ],
      "min": [
        -13.032651901245117,
        -10.309226036071777,
        17.022281646728516
      ],
      "type": "VEC3"
    },
    {
      "bufferView": 2,
      "byteOffset": 11795808,
      "componentType": 5126,
      "count": 65532,
      "max": [
        0.9999998211860657,
        0.9999337196350098,
        0.9999995231628418
      ],
      "min": [
        -0.9999984502792358,
        -0.9999958872795105,
        -0.9997224807739258
      ],
      "type": "VEC3"
    },
    {
      "bufferView": 1,
      "byteOffset": 3669808,
      "componentType": 5126,
      "count": 65532,
      "max": [
        0.99957275390625,
        0.9412230253219604
      ],
      "min": [
        0.00018310546875,
        0.00042714609298855066
      ],
      "type": "VEC2"
    },
    {
      "bufferView": 0,
      "byteOffset": 6347256,
      "componentType": 5125,
      "count": 228975,
      "type": "SCALAR"
    },
    {
      "bufferView": 2,
      "byteOffset": 12582192,
      "componentType": 5126,
      "count": 65532,
      "max": [
        16.686342239379883,
        45.379215240478516,
        26.310039520263672
      ],
      "min": [
        -44.22135925292969,
        -47.09593963623047,
        -6.029451370239258
      ],
      "type": "VEC3"
    },
    {
      "bufferView": 2,
      "byteOffset": 13368576,
      "componentType": 5126,
      "count": 65532,
      "max": [
        0.9999964833259583,
        0.999937891960144,
        0.9999920129776001
      ],
      "min": [
        -0.9999902844429016,
        -0.9999974370002747,
        -0.9961175918579102
      ],
      "type": "VEC3"
    },
    {
      "bufferView": 1,
      "byteOffset": 4194064,
      "componentType": 5126,
      "count": 65532,
      "max": [
        0.9995726943016052,
        0.9418333768844604
      ],
      "min": [
        0.00018310546875,
        0.00042714609298855066
      ],
      "type": "VEC2"
    },
    {
      "bufferView": 0,
      "byteOffset": 7263156,
      "componentType": 5125,
      "count": 186276,
      "type": "SCALAR"
    },
    {
      "bufferView": 2,
      "byteOffset": 14154960,
      "componentType": 5126,
      "count": 65532,
      "max": [
        35.9589729309082,
        45.379215240478516,
        19.248546600341797
      ],
      "min": [
        -34.779945373535156,
        -51.28388595581055,
        -6.029451370239258
      ],
      "type": "VEC3"
    },
    {
      "bufferView": 2,
      "byteOffset": 14941344,
      "componentType": 5126,
      "count": 65532,
      "max": [
        0.9998852610588074,
        0.9999709129333496,
        0.9999648332595825
      ],
      "min": [
        -0.9998508095741272,
        -0.9996232390403748,
        -0.9560345411300659
      ],
      "type": "VEC3"
    },
    {
      "bufferView": 1,
      "byteOffset": 4718320,
      "componentType": 5126,
      "count": 65532,
      "max": [
        0.9995726943016052,
        0.9393919706344604
      ],
      "min": [
        0.00018310546875,
        0.00042714609298855066
      ],
      "type": "VEC2"
    },
    {
      "bufferView": 0,
      "byteOffset": 8008260,
      "componentType": 5125,
      "count": 173718,
      "type": "SCALAR"
    },
    {
      "bufferView": 2,
      "byteOffset": 15727728,
      "componentType": 5126,
      "count": 11082,
      "max": [
        19.451499938964844,
        41.91511535644531,
        19.362689971923828
      ],
      "min": [
        -22.988080978393555,
        14.402036666870117,
        13.743101119995117
      ],
      "type": "VEC3"
    },
    {
      "bufferView": 2,
      "byteOffset": 15860712,
      "componentType": 5126,
      "count": 11082,
      "max": [
        0.9998465776443481,
        0.9992728233337402,
        0.9999867081642151
      ],
      "min": [
        -0.9997020363807678,
        -0.9995577335357666,
        -0.9814931750297546
      ],
      "type": "VEC3"
    },
    {
      "bufferView": 1,
      "byteOffset": 5242576,
      "componentType": 5126,
      "count": 11082,
      "max": [
        0.9995726346969604,
        0.9406126737594604
      ],
      "min": [
        0.00018310546875,
        0.00042714609298855066
      ],
      "type": "VEC2"
    },
    {
      "bufferView": 0,
      "byteOffset": 8703132,
      "componentType": 5125,
      "count": 21345,
      "type": "SCALAR"
    }
  ],
  "asset": {
    "extras": {
      "author": "matousekfoto (https://sketchfab.com/matousekfoto)",
      "license": "CC-BY-NC-4.0 (http://creativecommons.org/licenses/by-nc/4.0/)",
      "source": "https://sketchfab.com/3d-models/castle-of-loarre-2876fc98a198429ca34ea7f0a2dae014",
      "title": "Castle of Loarre"
    },
    "generator": "Sketchfab-12.67.0",
    "version": "2.0"
  },
  "bufferViews": [
    {
      "buffer": 0,
      "byteLength": 8788512,
      "name": "floatBufferViews",
      "target": 34963
    },
    {
      "buffer": 0,
      "byteLength": 5331232,
      "byteOffset": 8788512,
      "byteStride": 8,
      "name": "floatBufferViews",
      "target": 34962
    },
    {
      "buffer": 0,
      "byteLength": 15993696,
      "byteOffset": 14119744,
      "byteStride": 12,
      "name": "floatBufferViews",
      "target": 34962
    }
  ],
  "buffers": [
    {
      "byteLength": 30113440,
      "uri": "scene.bin"
    }
  ],
  "extensionsUsed": [
    "KHR_materials_unlit"
  ],
  "images": [
    {
      "uri": "textures/Material_u1_v1_baseColor.jpeg"
    }
  ],
  "materials": [
    {
      "doubleSided": true,
      "extensions": {
        "KHR_materials_unlit": {}
      },
      "name": "Material_u1_v1",
      "pbrMetallicRoughness": {
        "baseColorTexture": {
          "index": 0
        },
        "metallicFactor": 0.0
      }
    }
  ],
  "meshes": [
    {
      "name": "meshNode_Material_u1_v1_0",
      "primitives": [
        {
          "attributes": {
            "NORMAL": 1,
            "POSITION": 0,
            "TEXCOORD_0": 2
          },
          "indices": 3,
          "material": 0,
          "mode": 4
        }
      ]
    },
    {
      "name": "meshNode_Material_u1_v1_0",
      "primitives": [
        {
          "attributes": {
            "NORMAL": 5,
            "POSITION": 4,
            "TEXCOORD_0": 6
          },
          "indices": 7,
          "material": 0,
          "mode": 4
        }
      ]
    },
    {
      "name": "meshNode_Material_u1_v1_0",
      "primitives": [
        {
          "attributes": {
            "NORMAL": 9,
            "POSITION": 8,
            "TEXCOORD_0": 10
          },
          "indices": 11,
          "material": 0,
          "mode": 4
        }
      ]
    },
    {
      "name": "meshNode_Material_u1_v1_0",
      "primitives": [
        {
          "attributes": {
            "NORMAL": 13,
            "POSITION": 12,
            "TEXCOORD_0": 14
          },
          "indices": 15,
          "material": 0,
          "mode": 4
        }
      ]
    },
    {
      "name": "meshNode_Material_u1_v1_0",
      "primitives": [
        {
          "attributes": {
            "NORMAL": 17,
            "POSITION": 16,
            "TEXCOORD_0": 18
          },
          "indices": 19,
          "material": 0,
          "mode": 4
        }
      ]
    },
    {
      "name": "meshNode_Material_u1_v1_0",
      "primitives": [
        {
          "attributes": {
            "NORMAL": 21,
            "POSITION": 20,
            "TEXCOORD_0": 22
          },
          "indices": 23,
          "material": 0,
          "mode": 4
        }
      ]
    },
    {
      "name": "meshNode_Material_u1_v1_0",
      "primitives": [
        {
          "attributes": {
            "NORMAL": 25,
            "POSITION": 24,
            "TEXCOORD_0": 26
          },
          "indices": 27,
          "material": 0,
          "mode": 4
        }
      ]
    },
    {
      "name": "meshNode_Material_u1_v1_0",
      "primitives": [
        {
          "attributes": {
            "NORMAL": 29,
            "POSITION": 28,
            "TEXCOORD_0": 30
          },
          "indices": 31,
          "material": 0,
          "mode": 4
        }
      ]
    },
    {
      "name": "meshNode_Material_u1_v1_0",
      "primitives": [
        {
          "attributes": {
            "NORMAL": 33,
            "POSITION": 32,
            "TEXCOORD_0": 34
          },
          "indices": 35,
          "material": 0,
          "mode": 4
        }
      ]
    },
    {
      "name": "meshNode_Material_u1_v1_0",
      "primitives": [
        {
          "attributes": {
            "NORMAL": 37,
            "POSITION": 36,
            "TEXCOORD_0": 38
          },
          "indices": 39,
          "material": 0,
          "mode": 4
        }
      ]
    },
    {
      "name": "meshNode_Material_u1_v1_0",
      "primitives": [
        {
          "attributes": {
            "NORMAL": 41,
            "POSITION": 40,
            "TEXCOORD_0": 42
          },
          "indices": 43,
          "material": 0,
          "mode": 4
        }
      ]
    }
  ],
  "nodes": [
    {
      "children": [
        1
      ],
      "matrix": [
        0.022727273404598236,
        0.0,
        0.0,
        0.0,
        0.0,
        5.0464684441471866e-18,
        -0.022727273404598236,
        0.0,
        0.0,
        0.022727273404598236,
        5.0464684441471866e-18,
        0.0,
        0.0,
        0.0,
        0.0,
        1.0
      ],
      "name": "Sketchfab_model"
    },
    {
      "children": [
        2
      ],
      "matrix": [
        1.0,
        0.0,
        0.0,
        0.0,
        0.0,
        0.0,
        1.0,
        0.0,
        0.0,
        -1.0,
        0.0,
        0.0,
        0.0,
        0.0,
        0.0,
        1.0
      ],
      "name": "Loarre.fbx"
    },
    {
      "children": [
        3
      ],
      "name": "RootNode"
    },
    {
      "children": [
        4,
        5,
        6,
        7,
        8,
        9,
        10,
        11,
        12,
        13,
        14
      ],
      "matrix": [
        7.549789959870878e-06,
        1.1102230246251565e-14,
        99.99999999999972,
        0.0,
        99.99999999999962,
        -4.371139006309477e-06,
        -7.549789954319763e-06,
        0.0,
        4.371139006309477e-06,
        99.99999999999991,
        -3.552713678800501e-13,
        0.0,
        0.0,
        0.0,
        0.0,
        1.0
      ],
      "name": "meshNode"
    },
    {
      "mesh": 0,
      "name": "meshNode_Material_u1_v1_0"
    },
    {
      "mesh": 1,
      "name": "meshNode_Material_u1_v1_0"
    },
    {
      "mesh": 2,
      "name": "meshNode_Material_u1_v1_0"
    },
    {
      "mesh": 3,
      "name": "meshNode_Material_u1_v1_0"
    },
    {
      "mesh": 4,
      "name": "meshNode_Material_u1_v1_0"
    },
    {
      "mesh": 5,
      "name": "meshNode_Material_u1_v1_0"
    },
    {
      "mesh": 6,
      "name": "meshNode_Material_u1_v1_0"
    },
    {
      "mesh": 7,
      "name": "meshNode_Material_u1_v1_0"
    },
    {
      "mesh": 8,
      "name": "meshNode_Material_u1_v1_0"
    },
    {
      "mesh": 9,
      "name": "meshNode_Material_u1_v1_0"
    },
    {
      "mesh": 10,
      "name": "meshNode_Material_u1_v1_0"
    }
  ],
  "samplers": [
    {
      "magFilter": 9729,
      "minFilter": 9987,
      "wrapS": 10497,
      "wrapT": 10497
    }
  ],
  "scene": 0,
  "scenes": [
    {
      "name": "Sketchfab_Scene",
      "nodes": [
        0
      ]
    }
  ],
  "textures": [
    {
      "sampler": 0,
      "source": 0
    }
  ]
}
