{
  "accessors": [
    {
      "bufferView": 2,
      "componentType": 5126,
      "count": 65532,
      "max": [
        11.553756713867188,
        11.41617488861084,
        2.0272016525268555
      ],
      "min": [
        -12.192619323730469,
        -9.983407974243164,
        -3.904280185699463
      ],
      "type": "VEC3"
    },
    {
      "bufferView": 2,
      "byteOffset": 786384,
      "componentType": 5126,
      "count": 65532,
      "max": [
        0.9999984502792358,
        0.9999872446060181,
        0.9999995827674866
      ],
      "min": [
        -0.9999374747276306,
        -0.9999821186065674,
        -0.9987449049949646
      ],
      "type": "VEC3"
    },
    {
      "bufferView": 1,
      "componentType": 5126,
      "count": 65532,
      "max": [
        0.9984597563743591,
        0.9983939528465271
      ],
      "min": [
        0.001485347398556769,
        0.001485347398556769
      ],
      "type": "VEC2"
    },
    {
      "bufferView": 0,
      "componentType": 5125,
      "count": 318933,
      "type": "SCALAR"
    },
    {
      "bufferView": 2,
      "byteOffset": 1572768,
      "componentType": 5126,
      "count": 65532,
      "max": [
        11.211214065551758,
        11.158257484436035,
        1.5488362312316895
      ],
      "min": [
        -10.806207656860352,
        -9.971004486083984,
        -2.9638304710388184
      ],
      "type": "VEC3"
    },
    {
      "bufferView": 2,
      "byteOffset": 2359152,
      "componentType": 5126,
      "count": 65532,
      "max": [
        0.9999845027923584,
        0.9999745488166809,
        0.9999996423721313
      ],
      "min": [
        -0.9999073147773743,
        -0.9999732971191406,
        -0.8696322441101074
      ],
      "type": "VEC3"
    },
    {
      "bufferView": 1,
      "byteOffset": 524256,
      "componentType": 5126,
      "count": 65532,
      "max": [
        0.99850994348526,
        0.9985146522521973
      ],
      "min": [
        0.0015386034501716495,
        0.001485347398556769
      ],
      "type": "VEC2"
    },
    {
      "bufferView": 0,
      "byteOffset": 1275732,
      "componentType": 5125,
      "count": 305133,
      "type": "SCALAR"
    },
    {
      "bufferView": 2,
      "byteOffset": 3145536,
      "componentType": 5126,
      "count": 65532,
      "max": [
        11.552958488464355,
        11.410027503967285,
        1.9542288780212402
      ],
      "min": [
        -12.186071395874023,
        -9.199024200439453,
        -3.898674488067627
      ],
      "type": "VEC3"
    },
    {
      "bufferView": 2,
      "byteOffset": 3931920,
      "componentType": 5126,
      "count": 65532,
      "max": [
        0.9999589323997498,
        0.9999490976333618,
        0.9999995827674866
      ],
      "min": [
        -0.9998435974121094,
        -0.9999732971191406,
        -0.9862093925476074
      ],
      "type": "VEC3"
    },
    {
      "bufferView": 1,
      "byteOffset": 1048512,
      "componentType": 5126,
      "count": 65532,
      "max": [
        0.9984851479530334,
        0.9984885454177856
      ],
      "min": [
        0.001485347398556769,
        0.001485347398556769
      ],
      "type": "VEC2"
    },
    {
      "bufferView": 0,
      "byteOffset": 2496264,
      "componentType": 5125,
      "count": 264057,
      "type": "SCALAR"
    },
    {
      "bufferView": 2,
      "byteOffset": 4718304,
      "componentType": 5126,
      "count": 14993,
      "max": [
        10.906421661376953,
        11.326483726501465,
        1.6729998588562012
      ],
      "min": [
        -11.455169677734375,
        -9.969945907592773,
        -3.7852091789245605
      ],
      "type": "VEC3"
    },
    {
      "bufferView": 2,
      "byteOffset": 4898220,
      "componentType": 5126,
      "count": 14993,
      "max": [
        0.9990420341491699,
        0.9999074935913086,
        0.9999996423721313
      ],
      "min": [
        -0.9999073147773743,
        -0.9984288215637207,
        -0.9395016431808472
      ],
      "type": "VEC3"
    },
    {
      "bufferView": 1,
      "byteOffset": 1572768,
      "componentType": 5126,
      "count": 14993,
      "max": [
        0.9982208609580994,
        0.9984269142150879
      ],
      "min": [
        0.0016390824457630515,
        0.001485347398556769
      ],
      "type": "VEC2"
    },
    {
      "bufferView": 0,
      "byteOffset": 3552492,
      "componentType": 5125,
      "count": 43368,
      "type": "SCALAR"
    }
  ],
  "asset": {
    "extras": {
      "author": "GSXNet (https://sketchfab.com/gsxn)",
      "license": "CC-BY-NC-4.0 (http://creativecommons.org/licenses/by-nc/4.0/)",
      "source": "https://sketchfab.com/3d-models/castle-of-chinchilla-spain-7f43805cd81e4512a4e683c33572e014",
      "title": "Castle Of Chinchilla Spain"
    },
    "generator": "Sketchfab-12.68.0",
    "version": "2.0"
  },
  "bufferViews": [
    {
      "buffer": 0,
      "byteLength": 3725964,
      "name": "floatBufferViews",
      "target": 34963
    },
    {
      "buffer": 0,
      "byteLength": 1692712,
      "byteOffset": 3725964,
      "byteStride": 8,
      "name": "floatBufferViews",
      "target": 34962
    },
    {
      "buffer": 0,
      "byteLength": 5078136,
      "byteOffset": 5418676,
      "byteStride": 12,
      "name": "floatBufferViews",
      "target": 34962
    }
  ],
  "buffers": [
    {
      "byteLength": 10496812,
      "uri": "scene.bin"
    }
  ],
  "extensionsUsed": [
    "KHR_materials_unlit"
  ],
  "images": [
    {
      "uri": "textures/Castle_baseColor.png"
    }
  ],
  "materials": [
    {
      "doubleSided": true,
      "extensions": {
        "KHR_materials_unlit": {}
      },
      "name": "Castle",
      "pbrMetallicRoughness": {
        "baseColorTexture": {
          "index": 0
        },
        "metallicFactor": 0.0
      }
    }
  ],
  "meshes": [
    {
      "name": "Castle of Chinchilla_Castle_0",
      "primitives": [
        {
          "attributes": {
            "NORMAL": 1,
            "POSITION": 0,
            "TEXCOORD_0": 2
          },
          "indices": 3,
          "material": 0,
          "mode": 4
        }
      ]
    },
    {
      "name": "Castle of Chinchilla_Castle_0",
      "primitives": [
        {
          "attributes": {
            "NORMAL": 5,
            "POSITION": 4,
            "TEXCOORD_0": 6
          },
          "indices": 7,
          "material": 0,
          "mode": 4
        }
      ]
    },
    {
      "name": "Castle of Chinchilla_Castle_0",
      "primitives": [
        {
          "attributes": {
            "NORMAL": 9,
            "POSITION": 8,
            "TEXCOORD_0": 10
          },
          "indices": 11,
          "material": 0,
          "mode": 4
        }
      ]
    },
    {
      "name": "Castle of Chinchilla_Castle_0",
      "primitives": [
        {
          "attributes": {
            "NORMAL": 13,
            "POSITION": 12,
            "TEXCOORD_0": 14
          },
          "indices": 15,
          "material": 0,
          "mode": 4
        }
      ]
    }
  ],
  "nodes": [
    {
      "children": [
        1
      ],
      "matrix": [
        1.0,
        0.0,
        0.0,
        0.0,
        0.0,
        2.220446049250313e-16,
        -1.0,
        0.0,
        0.0,
        1.0,
        2.220446049250313e-16,
        0.0,
        0.0,
        0.0,
        0.0,
        1.0
      ],
      "name": "Sketchfab_model"
    },
    {
      "children": [
        2
      ],
      "matrix": [
        1.0,
        0.0,
        0.0,
        0.0,
        0.0,
        0.0,
        1.0,
        0.0,
        0.0,
        -1.0,
        0.0,
        0.0,
        0.0,
        0.0,
        0.0,
        1.0
      ],
      "name": "Castle of Chinchilla.fbx"
    },
    {
      "children": [
        3
      ],
      "name": "Object_2"
    },
    {
      "children": [
        4
      ],
      "name": "RootNode"
    },
    {
      "children": [
        5,
        6,
        7,
        8
      ],
      "name": "Castle of Chinchilla",
      "rotation": [
        -0.6938944458961487,
        0.006705215200781822,
        -0.006957590579986572,
        0.7200118899345398
      ],
      "scale": [
        99.99999237060547,
        100.00000762939453,
        100.0
      ]
    },
    {
      "mesh": 0,
      "name": "Castle of Chinchilla_Castle_0"
    },
    {
      "mesh": 1,
      "name": "Castle of Chinchilla_Castle_0"
    },
    {
      "mesh": 2,
      "name": "Castle of Chinchilla_Castle_0"
    },
    {
      "mesh": 3,
      "name": "Castle of Chinchilla_Castle_0"
    }
  ],
  "samplers": [
    {
      "magFilter": 9729,
      "minFilter": 9987,
      "wrapS": 10497,
      "wrapT": 10497
    }
  ],
  "scene": 0,
  "scenes": [
    {
      "name": "Sketchfab_Scene",
      "nodes": [
        0
      ]
    }
  ],
  "textures": [
    {
      "sampler": 0,
      "source": 0
    }
  ]
}
